<?xml version="1.0" standalone="no"?>
<!DOCTYPE svg PUBLIC "-//W3C//DTD SVG 20010904//EN"
 "http://www.w3.org/TR/2001/REC-SVG-20010904/DTD/svg10.dtd">
<svg version="1.0" xmlns="http://www.w3.org/2000/svg"
 width="32.000000pt" height="32.000000pt" viewBox="0 0 32.000000 32.000000"
 preserveAspectRatio="xMidYMid meet">

<g transform="translate(0.000000,32.000000) scale(0.100000,-0.100000)"
fill="#000000" stroke="none">
<path d="M126 286 c17 -8 46 -17 65 -21 48 -10 61 -23 54 -55 -4 -19 0 -31 15
-45 28 -25 25 -46 -9 -79 -26 -25 -48 -76 -32 -76 3 0 25 19 48 42 50 49 54
78 17 107 -19 15 -24 26 -19 41 12 38 -18 66 -89 84 -78 19 -92 20 -50 2z"/>
<path d="M11 251 c-1 -8 9 -50 20 -93 23 -85 49 -116 89 -103 15 5 26 0 41
-19 41 -52 54 -21 17 38 -17 26 -30 35 -50 36 -30 0 -52 26 -63 73 -4 15 -15
33 -25 40 -9 6 -19 19 -23 27 -4 12 -6 12 -6 1z"/>
</g>
</svg>
